<svg width="269" height="89" viewBox="0 0 269 89" fill="none" xmlns="http://www.w3.org/2000/svg">
<path d="M25.0218 23.5217C25.8984 25.3186 24.6234 31.3561 24.6234 31.3561C24.6234 31.3561 18.6469 28.1936 17.7703 26.3967C16.8937 24.5998 17.7703 22.5155 19.7625 21.7248C21.7547 20.9342 24.1453 21.7248 25.0218 23.5217Z" fill="#64892F"/>
<path d="M26.5359 31.7154H24.4641C24.4641 28.6248 26.3766 23.3779 34.0266 23.3779V25.2467C27.0938 25.2467 26.5359 31.1404 26.5359 31.7154Z" fill="#947151"/>
<path d="M25.5 31.3563C19.6828 26.0376 2.39063 25.8219 2.39063 41.0594C2.39063 50.6907 14.9813 64.5626 20.4797 64.5626C22.95 64.5626 23.8266 63.1251 25.3406 63.1251C26.775 63.1251 27.2531 64.4907 30.4406 64.4907C35.9391 64.5626 48.6094 50.7626 48.6094 41.0594C48.6094 25.8219 31.3172 26.0376 25.5 31.3563Z" fill="#3FCEAC"/>
<path d="M88.7395 49.02H79.1995L77.3695 54H75.1495L82.7995 33.3H85.1695L92.7895 54H90.5695L88.7395 49.02ZM88.1095 47.28L83.9695 35.94L79.8295 47.28H88.1095ZM98.2598 33.03V54H96.1598V33.03H98.2598ZM121.058 43.17C122.238 43.39 123.238 43.99 124.058 44.97C124.878 45.95 125.288 47.09 125.288 48.39C125.288 49.45 125.018 50.41 124.478 51.27C123.958 52.11 123.188 52.78 122.168 53.28C121.148 53.76 119.928 54 118.508 54H111.248V33.03H118.298C120.418 33.03 122.028 33.52 123.128 34.5C124.248 35.48 124.808 36.75 124.808 38.31C124.808 39.61 124.458 40.67 123.758 41.49C123.058 42.29 122.158 42.85 121.058 43.17ZM113.348 42.3H118.238C119.658 42.3 120.748 41.97 121.508 41.31C122.288 40.63 122.678 39.7 122.678 38.52C122.678 37.36 122.288 36.45 121.508 35.79C120.748 35.13 119.628 34.8 118.148 34.8H113.348V42.3ZM118.358 52.23C119.878 52.23 121.058 51.87 121.898 51.15C122.758 50.43 123.188 49.44 123.188 48.18C123.188 46.92 122.738 45.92 121.838 45.18C120.958 44.42 119.768 44.04 118.268 44.04H113.348V52.23H118.358ZM143.968 44.97C143.968 45.69 143.948 46.24 143.908 46.62H130.318C130.378 47.86 130.678 48.92 131.218 49.8C131.758 50.68 132.468 51.35 133.348 51.81C134.228 52.25 135.188 52.47 136.228 52.47C137.588 52.47 138.728 52.14 139.648 51.48C140.588 50.82 141.208 49.93 141.508 48.81H143.728C143.328 50.41 142.468 51.72 141.148 52.74C139.848 53.74 138.208 54.24 136.228 54.24C134.688 54.24 133.308 53.9 132.088 53.22C130.868 52.52 129.908 51.54 129.208 50.28C128.528 49 128.188 47.51 128.188 45.81C128.188 44.11 128.528 42.62 129.208 41.34C129.888 40.06 130.838 39.08 132.058 38.4C133.278 37.72 134.668 37.38 136.228 37.38C137.788 37.38 139.148 37.72 140.308 38.4C141.488 39.08 142.388 40 143.008 41.16C143.648 42.3 143.968 43.57 143.968 44.97ZM141.838 44.91C141.858 43.69 141.608 42.65 141.088 41.79C140.588 40.93 139.898 40.28 139.018 39.84C138.138 39.4 137.178 39.18 136.138 39.18C134.578 39.18 133.248 39.68 132.148 40.68C131.048 41.68 130.438 43.09 130.318 44.91H141.838ZM149.91 40.53C150.37 39.51 151.07 38.72 152.01 38.16C152.97 37.6 154.14 37.32 155.52 37.32V39.51H154.95C153.43 39.51 152.21 39.92 151.29 40.74C150.37 41.56 149.91 42.93 149.91 44.85V54H147.81V37.62H149.91V40.53ZM164.319 54.24C162.439 54.24 160.899 53.81 159.699 52.95C158.519 52.07 157.859 50.88 157.719 49.38H159.879C159.979 50.3 160.409 51.05 161.169 51.63C161.949 52.19 162.989 52.47 164.289 52.47C165.429 52.47 166.319 52.2 166.959 51.66C167.619 51.12 167.949 50.45 167.949 49.65C167.949 49.09 167.769 48.63 167.409 48.27C167.049 47.91 166.589 47.63 166.029 47.43C165.489 47.21 164.749 46.98 163.809 46.74C162.589 46.42 161.599 46.1 160.839 45.78C160.079 45.46 159.429 44.99 158.889 44.37C158.369 43.73 158.109 42.88 158.109 41.82C158.109 41.02 158.349 40.28 158.829 39.6C159.309 38.92 159.989 38.38 160.869 37.98C161.749 37.58 162.749 37.38 163.869 37.38C165.629 37.38 167.049 37.83 168.129 38.73C169.209 39.61 169.789 40.83 169.869 42.39H167.769C167.709 41.43 167.329 40.66 166.629 40.08C165.949 39.48 165.009 39.18 163.809 39.18C162.749 39.18 161.889 39.43 161.229 39.93C160.569 40.43 160.239 41.05 160.239 41.79C160.239 42.43 160.429 42.96 160.809 43.38C161.209 43.78 161.699 44.1 162.279 44.34C162.859 44.56 163.639 44.81 164.619 45.09C165.799 45.41 166.739 45.72 167.439 46.02C168.139 46.32 168.739 46.76 169.239 47.34C169.739 47.92 169.999 48.69 170.019 49.65C170.019 50.53 169.779 51.32 169.299 52.02C168.819 52.7 168.149 53.24 167.289 53.64C166.429 54.04 165.439 54.24 164.319 54.24ZM188.792 44.97C188.792 45.69 188.772 46.24 188.732 46.62H175.142C175.202 47.86 175.502 48.92 176.042 49.8C176.582 50.68 177.292 51.35 178.172 51.81C179.052 52.25 180.012 52.47 181.052 52.47C182.412 52.47 183.552 52.14 184.472 51.48C185.412 50.82 186.032 49.93 186.332 48.81H188.552C188.152 50.41 187.292 51.72 185.972 52.74C184.672 53.74 183.032 54.24 181.052 54.24C179.512 54.24 178.132 53.9 176.912 53.22C175.692 52.52 174.732 51.54 174.032 50.28C173.352 49 173.012 47.51 173.012 45.81C173.012 44.11 173.352 42.62 174.032 41.34C174.712 40.06 175.662 39.08 176.882 38.4C178.102 37.72 179.492 37.38 181.052 37.38C182.612 37.38 183.972 37.72 185.132 38.4C186.312 39.08 187.212 40 187.832 41.16C188.472 42.3 188.792 43.57 188.792 44.97ZM186.662 44.91C186.682 43.69 186.432 42.65 185.912 41.79C185.412 40.93 184.722 40.28 183.842 39.84C182.962 39.4 182.002 39.18 180.962 39.18C179.402 39.18 178.072 39.68 176.972 40.68C175.872 41.68 175.262 43.09 175.142 44.91H186.662ZM194.734 40.53C195.194 39.51 195.894 38.72 196.834 38.16C197.794 37.6 198.964 37.32 200.344 37.32V39.51H199.774C198.254 39.51 197.034 39.92 196.114 40.74C195.194 41.56 194.734 42.93 194.734 44.85V54H192.634V37.62H194.734V40.53ZM212.354 54L205.604 46.65V54H203.504V31.8H205.604V44.94L212.204 37.62H215.144L207.374 45.78L215.204 54H212.354ZM223.558 54.24C221.678 54.24 220.138 53.81 218.938 52.95C217.758 52.07 217.098 50.88 216.958 49.38H219.118C219.218 50.3 219.648 51.05 220.408 51.63C221.188 52.19 222.228 52.47 223.528 52.47C224.668 52.47 225.558 52.2 226.198 51.66C226.858 51.12 227.188 50.45 227.188 49.65C227.188 49.09 227.008 48.63 226.648 48.27C226.288 47.91 225.828 47.63 225.268 47.43C224.728 47.21 223.988 46.98 223.048 46.74C221.828 46.42 220.838 46.1 220.078 45.78C219.318 45.46 218.668 44.99 218.128 44.37C217.608 43.73 217.348 42.88 217.348 41.82C217.348 41.02 217.588 40.28 218.068 39.6C218.548 38.92 219.228 38.38 220.108 37.98C220.988 37.58 221.988 37.38 223.108 37.38C224.868 37.38 226.288 37.83 227.368 38.73C228.448 39.61 229.028 40.83 229.108 42.39H227.008C226.948 41.43 226.568 40.66 225.868 40.08C225.188 39.48 224.248 39.18 223.048 39.18C221.988 39.18 221.128 39.43 220.468 39.93C219.808 40.43 219.478 41.05 219.478 41.79C219.478 42.43 219.668 42.96 220.048 43.38C220.448 43.78 220.938 44.1 221.518 44.34C222.098 44.56 222.878 44.81 223.858 45.09C225.038 45.41 225.978 45.72 226.678 46.02C227.378 46.32 227.978 46.76 228.478 47.34C228.978 47.92 229.238 48.69 229.258 49.65C229.258 50.53 229.018 51.32 228.538 52.02C228.058 52.7 227.388 53.24 226.528 53.64C225.668 54.04 224.678 54.24 223.558 54.24Z" fill="#2E143D"/>
</svg>
